<?xml version="1.0" encoding="utf-8"?>
<!DOCTYPE svg PUBLIC "-//W3C//DTD SVG 1.1//EN" "http://www.w3.org/Graphics/SVG/1.1/DTD/svg11.dtd">
<svg x="0" y="0" width="701" height="700" overflow="hidden" viewBox="0, 0, 701, 700" preserveAspectRatio="xMidYMid" font-size="0" xml:space="default" baseProfile="full" xmlns="http://www.w3.org/2000/svg" xmlns:xlink="http://www.w3.org/1999/xlink" xmlns:xml="http://www.w3.org/XML/1998/namespace" version="1.1">
  <rect x="0" y="0" width="701" height="700" rx="none" ry="none" id="id0" xml:space="default" style="fill:none;" />
  <path d="M350.5 349.2125 A7.0875 7.0875 0 1 1 350.5 335.0375 A14.9625 14.9625 0 0 1 359.759 338.2464 A7.0875 7.0875 0 1 1 350.9873 349.3814 A0.7875 0.7875 0 0 0 350.5 349.2125" xml:space="default" style="fill:#4C78A8;" />
  <path d="M350.5 333.4625 A7.0875 7.0875 0 1 1 350.5 319.2875 A30.7125 30.7125 0 0 1 370.025 326.2928 A7.0875 7.0875 0 1 1 361.0135 337.2346 A16.5375 16.5375 0 0 0 350.5 333.4625" xml:space="default" style="fill:#9ECAE9;" />
  <path d="M350.5 317.7125 A7.0875 7.0875 0 1 1 350.5 303.5375 A46.4625 46.4625 0 0 1 380.6812 314.675 A7.0875 7.0875 0 0 1 371.4734 325.4521 A32.2875 32.2875 0 0 0 350.5 317.7125" xml:space="default" style="fill:#F58518;" />
  <path d="M350.5 301.9625 A7.0875 7.0875 0 1 1 350.5 287.7875 A62.2125 62.2125 0 0 1 390.9121 302.7004 A7.0875 7.0875 0 0 1 381.7043 313.4775 A48.0375 48.0375 0 0 0 350.5 301.9625" xml:space="default" style="fill:#FFBF79;" />
  <path d="M350.5 286.2125 A7.0875 7.0875 0 1 1 350.5 272.0375 A77.9625 77.9625 0 0 1 403.1097 292.4641 A7.0875 7.0875 0 1 1 393.5443 302.9252 A63.7875 63.7875 0 0 0 350.5 286.2125" xml:space="default" style="fill:#54A24B;" />
  <path d="M350.5 270.4625 A7.0875 7.0875 0 1 1 350.5 256.2875 A93.7125 93.7125 0 0 1 417.4251 284.4023 A7.0875 7.0875 0 1 1 407.302 294.3246 A79.5375 79.5375 0 0 0 350.5 270.4625" xml:space="default" style="fill:#88D27A;" />
  <path d="M350.5 254.7125 A7.0875 7.0875 0 1 1 350.5 240.5375 A109.4625 109.4625 0 0 1 439.0722 285.6804 A7.0875 7.0875 0 1 1 427.6024 294.0096 A95.2875 95.2875 0 0 0 350.5 254.7125" xml:space="default" style="fill:#B79A20;" />
  <path d="M350.5 238.9625 A7.0875 7.0875 0 1 1 350.5 224.7875 A125.2125 125.2125 0 0 1 451.8164 276.4258 A7.0875 7.0875 0 1 1 440.3466 284.755 A111.0375 111.0375 0 0 0 350.5 238.9625" xml:space="default" style="fill:#F2CF5B;" />
  <path d="M350.5 223.2125 A7.0875 7.0875 0 1 1 350.5 209.0375 A140.9625 140.9625 0 0 1 464.9952 267.7731 A7.0875 7.0875 0 0 1 453.4817 276.0417 A126.7875 126.7875 0 0 0 350.5 223.2125" xml:space="default" style="fill:#439894;" />
  <path d="M350.5 207.4625 A7.0875 7.0875 0 1 1 350.5 193.2875 A156.7125 156.7125 0 0 1 490.3686 279.3206 A7.0875 7.0875 0 1 1 477.7172 285.7137 A142.5375 142.5375 0 0 0 350.5 207.4625" xml:space="default" style="fill:#83BCB6;" />
  <path d="M350.5 191.7125 A7.0875 7.0875 0 1 1 350.5 177.5375 A172.4625 172.4625 0 0 1 514.5383 296.7577 A7.0875 7.0875 0 0 1 501.0557 301.1338 A158.2875 158.2875 0 0 0 350.5 191.7125" xml:space="default" style="fill:#E45756;" />
  <path d="M350.5 175.9625 A7.0875 7.0875 0 1 1 350.5 161.7875 A188.2125 188.2125 0 0 1 538.3702 361.3456 A7.0875 7.0875 0 1 1 524.221 360.4911 A174.0375 174.0375 0 0 0 350.5 175.9625" xml:space="default" style="fill:#FF9D98;" />
  <path d="M350.5 160.2125 A7.0875 7.0875 0 1 1 350.5 146.0375 A203.9625 203.9625 0 0 1 544.4501 413.1193 A7.0875 7.0875 0 1 1 530.971 408.7326 A189.7875 189.7875 0 0 0 350.5 160.2125" xml:space="default" style="fill:#79706E;" />
  <path d="M350.5 144.4625 A7.0875 7.0875 0 1 1 350.5 130.2875 A219.7125 219.7125 0 0 1 537.7748 464.8988 A7.0875 7.0875 0 0 1 525.6926 457.486 A205.5375 205.5375 0 0 0 350.5 144.4625" xml:space="default" style="fill:#BAB0AC;" />
  <path d="M350.5 128.7125 A7.0875 7.0875 0 1 1 350.5 114.5375 A235.4625 235.4625 0 0 1 533.4053 498.2844 A7.0875 7.0875 0 0 1 522.3943 489.3575 A221.2875 221.2875 0 0 0 350.5 128.7125" xml:space="default" style="fill:#D67195;" />
  <path d="M350.5 112.9625 A7.0875 7.0875 0 1 1 350.5 98.7875 A251.2125 251.2125 0 0 1 458.3659 576.8759 A7.0875 7.0875 0 1 1 452.2794 564.0741 A237.0375 237.0375 0 0 0 350.5 112.9625" xml:space="default" style="fill:#FCBFD2;" />
  <path d="M350.5 97.2125 A7.0875 7.0875 0 1 1 350.5 83.0375 A266.9625 266.9625 0 1 1 215.535 580.3333 A7.0875 7.0875 0 1 1 222.7013 568.1032 A252.7875 252.7875 0 1 0 350.5 97.2125" xml:space="default" style="fill:#B279A2;" />
  <path d="M350.5 81.4625 A7.0875 7.0875 0 1 1 350.5 67.2875 A282.7125 282.7125 0 1 1 184.1102 578.5625 A7.0875 7.0875 0 1 1 192.4529 567.1025 A268.5375 268.5375 0 1 0 350.5 81.4625" xml:space="default" style="fill:#D6A5C9;" />
  <path d="M350.5 65.7125 A7.0875 7.0875 0 1 1 350.5 51.5375 A298.4625 298.4625 0 1 1 98.3341 509.6628 A7.0875 7.0875 0 1 1 110.3103 502.0799 A284.2875 284.2875 0 1 0 350.5 65.7125" xml:space="default" style="fill:#9E765F;" />
  <path d="M350.5 49.9625 A7.0875 7.0875 0 1 1 350.5 35.7875 A314.2125 314.2125 0 1 1 36.2877 349.6297 A7.0875 7.0875 0 0 1 50.4627 349.6464 A300.0375 300.0375 0 1 0 350.5 49.9625" xml:space="default" style="fill:#D8B5A5;" />
  <text xml:space="default" text-anchor="end" font-family="Microsoft YaHei" font-size="10px" transform="translate(338.4125, 342.125)" style="dominant-baseline:central;fill:#4C78A8;">Volleyball：5.8,981%</text>
  <text xml:space="default" text-anchor="end" font-family="Microsoft YaHei" font-size="10px" transform="translate(338.4125, 326.375)" style="dominant-baseline:central;fill:#9ECAE9;">Shooting：6.0,902%</text>
  <text xml:space="default" text-anchor="end" font-family="Microsoft YaHei" font-size="10px" transform="translate(338.4125, 310.625)" style="dominant-baseline:central;fill:#F58518;">Karate：6.2,500%</text>
  <text xml:space="default" text-anchor="end" font-family="Microsoft YaHei" font-size="10px" transform="translate(338.4125, 294.875)" style="dominant-baseline:central;fill:#FFBF79;">Taekwondo：6.2,500%</text>
  <text xml:space="preserve" text-anchor="end" font-family="Microsoft YaHei" font-size="10px" transform="translate(338.4125, 279.125)" style="dominant-baseline:central;fill:#54A24B;">Rhythmic Gymnastics：6.5,476%</text>
  <text xml:space="preserve" text-anchor="end" font-family="Microsoft YaHei" font-size="10px" transform="translate(338.4125, 263.375)" style="dominant-baseline:central;fill:#88D27A;">Canoe Sprint：7.0,313%</text>
  <text xml:space="preserve" text-anchor="end" font-family="Microsoft YaHei" font-size="10px" transform="translate(338.4125, 247.625)" style="dominant-baseline:central;fill:#B79A20;">3x3 Basketball：8.3,333%</text>
  <text xml:space="preserve" text-anchor="end" font-family="Microsoft YaHei" font-size="10px" transform="translate(338.4125, 231.875)" style="dominant-baseline:central;fill:#F2CF5B;">Cycling BMX Freestyle：8.3,333%</text>
  <text xml:space="default" text-anchor="end" font-family="Microsoft YaHei" font-size="10px" transform="translate(338.4125, 216.125)" style="dominant-baseline:central;fill:#439894;">Softball：8.3,799%</text>
  <text xml:space="default" text-anchor="end" font-family="Microsoft YaHei" font-size="10px" transform="translate(338.4125, 200.375)" style="dominant-baseline:central;fill:#83BCB6;">Weightlifting：9.7,493%</text>
  <text xml:space="preserve" text-anchor="end" font-family="Microsoft YaHei" font-size="10px" transform="translate(338.4125, 184.625)" style="dominant-baseline:central;fill:#E45756;">Sport Climbing：11.1,111%</text>
  <text xml:space="preserve" text-anchor="end" font-family="Microsoft YaHei" font-size="10px" transform="translate(338.4125, 168.875)" style="dominant-baseline:central;fill:#FF9D98;">Synchronized Swimming：14.4,186%</text>
  <text xml:space="default" text-anchor="end" font-family="Microsoft YaHei" font-size="10px" transform="translate(338.4125, 153.125)" style="dominant-baseline:central;fill:#79706E;">Breaking：16.6,667%</text>
  <text xml:space="preserve" text-anchor="end" font-family="Microsoft YaHei" font-size="10px" transform="translate(338.4125, 137.375)" style="dominant-baseline:central;fill:#BAB0AC;">Artistic Gymnastics：18.7,500%</text>
  <text xml:space="default" text-anchor="end" font-family="Microsoft YaHei" font-size="10px" transform="translate(338.4125, 121.625)" style="dominant-baseline:central;fill:#D67195;">Badminton：19.9,074%</text>
  <text xml:space="default" text-anchor="end" font-family="Microsoft YaHei" font-size="10px" transform="translate(338.4125, 105.875)" style="dominant-baseline:central;fill:#FCBFD2;">Diving：23.8,477%</text>
  <text xml:space="preserve" text-anchor="end" font-family="Microsoft YaHei" font-size="10px" transform="translate(338.4125, 90.125)" style="dominant-baseline:central;fill:#B279A2;">Table Tennis：32.4,561%</text>
  <text xml:space="preserve" text-anchor="end" font-family="Microsoft YaHei" font-size="10px" transform="translate(338.4125, 74.375)" style="dominant-baseline:central;fill:#D6A5C9;">Artistic Swimming：33.3,333%</text>
  <text xml:space="default" text-anchor="end" font-family="Microsoft YaHei" font-size="10px" transform="translate(338.4125, 58.625)" style="dominant-baseline:central;fill:#9E765F;">Trampolining：36.6,667%</text>
  <text xml:space="preserve" text-anchor="end" font-family="Microsoft YaHei" font-size="10px" transform="translate(338.4125, 42.875)" style="dominant-baseline:central;fill:#D8B5A5;">Trampoline Gymnastics：41.6,667%</text>
  <path d="M-5 -25.3906 L431.4258 -25.3906 L431.4258 5 L-5 5 z" stroke-width="0" transform="translate(137.2871, 26)" xml:space="default" fill-opacity="0" style="fill:#000000;stroke:#CCCCCC;" />
  <text xml:space="preserve" y="-10.19531" font-family="Times New Roman" font-size="20px" font-weight="700" transform="translate(137.2871, 26)" style="dominant-baseline:central;fill:#333333;">Percentage of Medals of Different Sports in China</text>
</svg>